<?xml version="1.0" encoding="iso-8859-1"?>
<!-- Generator: Adobe Illustrator 17.1.0, SVG Export Plug-In . SVG Version: 6.00 Build 0)  -->
<!DOCTYPE svg PUBLIC "-//W3C//DTD SVG 1.1//EN" "http://www.w3.org/Graphics/SVG/1.1/DTD/svg11.dtd">
<svg version="1.1" id="Capa_1" xmlns="http://www.w3.org/2000/svg" xmlns:xlink="http://www.w3.org/1999/xlink" x="0px" y="0px"
	 viewBox="0 0 200 200" style="enable-background:new 0 0 200 200;" xml:space="preserve">
<g>
	<rect x="9.853" y="141.358" width="55.889" height="43.087"/>
	<rect x="136.632" y="156.064" width="55.889" height="28.38"/>
	<rect x="70.743" y="123.556" width="60.889" height="60.889"/>
	<path d="M149.559,54.87c1.025-8.705-5.24-15.932-13.035-18.426c-0.85-0.272-1.465-1.148-1.377-2.036
		c0.097-0.98,0.165-1.924,0.203-2.825c0.037-0.892-0.689-1.616-1.582-1.616h-65.16c-0.893,0-1.619,0.724-1.581,1.616
		c0.038,0.901,0.105,1.845,0.202,2.825c0.088,0.888-0.527,1.765-1.377,2.037c-7.795,2.494-14.061,9.721-13.035,18.426
		c0.58,4.926,2.536,9.766,6.61,12.868c2.294,1.747,4.725,3.061,7.327,4.28c1.192,0.523,2.39,1.032,3.594,1.528
		c2.477,1.037,3.712,2.051,5.421,3.511c0.679,0.58,0.678,0.5-0.199,0.332c-2.814-0.536-5.208,3.81-2.409,6.159
		c2.838,2.383,6.115,1.948,8.847-0.364c0.827-0.7,1.345-1.527,1.624-2.419c0.267-0.852,0.683-1.005,1.231-0.301
		c2.943,3.779,6.147,6.779,9.533,8.555c0.791,0.415,1.464,1.409,1.464,2.302v10.148c0,0.311,0.031,0.614,0.087,0.908
		c0.094,0.496-0.481,0.881-1.374,0.881h-6.708c-2.208,0-3.997,1.789-3.997,3.997v6.415c0,2.208,1.79,3.997,3.997,3.997h26.646
		c2.208,0,3.997-1.789,3.997-3.997v-6.415c0-2.208-1.79-3.997-3.997-3.997h-6.708c-0.893,0-1.468-0.385-1.374-0.881
		c0.056-0.294,0.087-0.597,0.087-0.908V91.321c0-0.893,0.673-1.887,1.463-2.302c3.386-1.776,6.59-4.776,9.533-8.555
		c0.548-0.704,0.964-0.551,1.231,0.301c0.279,0.892,0.797,1.719,1.624,2.419c2.732,2.312,6.009,2.747,8.847,0.364
		c2.798-2.349,0.405-6.695-2.409-6.159c-0.877,0.167-0.877,0.248-0.199-0.332c1.708-1.46,2.943-2.474,5.421-3.511
		c1.204-0.496,2.401-1.005,3.593-1.528c2.603-1.219,5.033-2.533,7.328-4.28C147.022,64.636,148.978,59.796,149.559,54.87z
		 M76.669,68.795c-3.827-2.029-8.486-3.219-11.895-5.351c-8.846-5.534-5.78-16.791,2.24-20.271c0.819-0.355,1.668,0.162,1.868,1.032
		c1.765,7.715,4.692,16.287,8.461,23.955C77.737,68.96,77.458,69.213,76.669,68.795z M107.273,77.576h-6.316V46.122h-0.148
		l-8.398,4.531l-1.261-4.979l10.548-5.648h5.575V77.576z M137.6,63.443c-3.409,2.132-8.068,3.322-11.895,5.351
		c-0.789,0.418-1.067,0.165-0.673-0.636c3.769-7.668,6.695-16.24,8.461-23.954c0.199-0.87,1.048-1.387,1.867-1.032
		C143.38,46.653,146.445,57.91,137.6,63.443z"/>
</g>
</svg>
