<?xml version="1.0" encoding="iso-8859-1"?>
<!-- Generator: Adobe Illustrator 17.0.0, SVG Export Plug-In . SVG Version: 6.00 Build 0)  -->
<!DOCTYPE svg PUBLIC "-//W3C//DTD SVG 1.1//EN" "http://www.w3.org/Graphics/SVG/1.1/DTD/svg11.dtd">
<svg version="1.1" id="Capa_1" xmlns="http://www.w3.org/2000/svg" xmlns:xlink="http://www.w3.org/1999/xlink" x="0px" y="0px"
	 width="64px" height="64px" viewBox="0 0 64 64" style="enable-background:new 0 0 64 64;" xml:space="preserve">
<g>
	<path d="M19.336,58.765c2.434,0,2.488-7.797,1.327-15.815c-1.161-8.018-3.041-10.949-4.479-10.949
		c-1.437,0-2.378,1.548-2.378,1.548c-1.051,8.184,3.027,22.7,3.027,22.7C17.516,58.945,19.336,58.765,19.336,58.765z"/>
	<path d="M46.141,56.563c0,0,3.539-14.657,2.186-22.797c0,0-0.997-1.512-2.434-1.459c-1.437,0.053-3.208,3.052-4.071,11.108
		c-0.863,8.055-0.52,15.845,1.912,15.754C43.733,59.169,45.559,59.282,46.141,56.563z"/>
	<path d="M5.88,37.991c0.014,2.02,0.422,4.964,2.176,8.057c0,0,0.543,4.975,1.792,6.69c0.707,0.97,1.825,1.691,2.662,2.135
		c0.312,0.492,3.95,3.505,3.95,3.505s-2.211-6.525-3.152-12.994C12.368,38.916,12.7,33.716,12.7,33.716l-2.268,2.377
		c0,0-0.308,0.387-0.476,1.913L9.547,38.36c0,0-0.332-0.475-0.903-0.988c-0.552-0.496-0.901-1.424-0.671-2.218
		c0.228-0.794,0.142-2.032-0.193-2.765c-0.336-0.733-0.583-2.54-0.252-3.987c0.7-3.067,2.778-8.326,8.933-13.293
		c0,0,1.664-0.564,9.041-2.488c9.539-2.488,16.628,2.278,16.628,2.278s2.755,0.958,3.308,0.57c0,0,7.01,4.536,9.226,13.066
		c0.374,1.437,0.171,3.244-0.241,3.992c-0.412,0.748-0.548,1.949-0.304,2.682c0.244,0.733,0.052,1.667-0.342,2.163
		c-0.243,0.306-0.473,0.658-0.57,0.988l-0.705-0.4c0,0-0.29-1.41-0.539-1.742c-0.249-0.332-2.115-1.576-2.115-1.576
		s1.011,6.705-2.529,22.575c0,0,4.258-2.101,5.861-4.645c1.604-2.544,1.438-6.249,1.438-6.249s2.155-4.257,1.99-7.354
		c-0.044-0.82-0.095-1.489-0.147-2.028c-0.108-1.118,0.002-2.579,0.369-3.281c0.365-0.702,0.654-2.48,0.391-3.941
		c-0.668-3.7-2.962-10.589-10.815-16.436c0,0-4.729-5.999-16.119-5.889c-11.392,0.11-14.487,5.806-14.487,5.806
		S7.08,18.181,5.157,29.637c-0.245,1.464-0.025,3.343,0.327,4.175C5.836,34.645,5.871,36.507,5.88,37.991z"/>
</g>
</svg>
