<?xml version="1.0" encoding="utf-8"?>
<!-- Generator: Adobe Illustrator 17.0.0, SVG Export Plug-In . SVG Version: 6.00 Build 0)  -->
<!DOCTYPE svg PUBLIC "-//W3C//DTD SVG 1.1//EN" "http://www.w3.org/Graphics/SVG/1.1/DTD/svg11.dtd">
<svg version="1.1" id="Capa_1" xmlns="http://www.w3.org/2000/svg" xmlns:xlink="http://www.w3.org/1999/xlink" x="0px" y="0px"
	 width="52px" height="52px" viewBox="0 0 52 52" enable-background="new 0 0 52 52" xml:space="preserve">
<path d="M49.485,29.346c0.679-0.871,1.034-2.168,0.411-2.222c-0.271-0.024-0.616,0.065-1.046,0.37c0,0-3.717,2.923-6.403,3.837
	c-1.046,0.356-2.819-0.064-3.885-0.357c-2.68-0.736-7.301-2.027-8.18-2.411c-1.251-0.548,6.292-7.609,7.735-8.589
	s2.975-5.975-2.759-3.501c-2.576,1.111-17.322,9.467-18.918,8.732c0,0-12.84-5.075-15-0.59c0,0-0.923,2.179,1.105,2.825
	c9.101,2.912,35.071,8.716,36.842,9.256c1.171,0.357,4.151,0.379,5.922-0.119c1.063-0.299,1.06-1.306,0.748-1.537
	c-0.225-0.167-0.396-0.375-0.26-0.575C45.798,34.464,47.517,31.87,49.485,29.346z M12.75,28.482c-0.64,0-1.159-0.519-1.159-1.158
	c0-0.641,0.519-1.158,1.159-1.158s1.158,0.518,1.158,1.158C13.908,27.964,13.389,28.482,12.75,28.482z M15.949,29.283
	c-0.64,0-1.159-0.52-1.159-1.159s0.519-1.159,1.159-1.159s1.159,0.52,1.159,1.159S16.589,29.283,15.949,29.283z M19.149,30.082
	c-0.64,0-1.159-0.518-1.159-1.158c0-0.64,0.519-1.158,1.159-1.158c0.64,0,1.159,0.519,1.159,1.158
	C20.308,29.564,19.789,30.082,19.149,30.082z M22.349,30.883c-0.64,0-1.158-0.52-1.158-1.158c0-0.641,0.519-1.159,1.158-1.159
	c0.64,0,1.159,0.519,1.159,1.159C23.508,30.363,22.989,30.883,22.349,30.883z M25.549,31.683c-0.64,0-1.159-0.519-1.159-1.159
	c0-0.639,0.519-1.158,1.159-1.158s1.159,0.52,1.159,1.158C26.708,31.164,26.189,31.683,25.549,31.683z M28.75,32.482
	c-0.64,0-1.159-0.519-1.159-1.158c0-0.641,0.519-1.158,1.159-1.158c0.64,0,1.158,0.518,1.158,1.158
	C29.908,31.964,29.389,32.482,28.75,32.482z"/>
</svg>
